<svg xmlns="http://www.w3.org/2000/svg" xmlns:cc="http://web.resource.org/cc/" xmlns:svg="http://www.w3.org/2000/svg" xmlns:xlink="http://www.w3.org/1999/xlink" id="svg6361" width="48" height="48"><defs id="defs3"><linearGradient id="linearGradient5162"><stop id="stop5164" offset="0" style="stop-color:#72a0cf;stop-opacity:1"/><stop id="stop5166" offset="1" style="stop-color:#bed2ed;stop-opacity:1"/></linearGradient><linearGradient id="linearGradient17170"><stop id="stop17172" offset="0" style="stop-color:#729fcf;stop-opacity:0"/><stop id="stop17174" offset="1" style="stop-color:#3465a4;stop-opacity:1"/></linearGradient><linearGradient id="linearGradient11333"><stop style="stop-color:#3465a4;stop-opacity:1" id="stop11335" offset="0"/><stop style="stop-color:#3465a4;stop-opacity:0" id="stop11337" offset="1"/></linearGradient><linearGradient id="linearGradient9387"><stop style="stop-color:#72a0cf;stop-opacity:1" id="stop9389" offset="0"/><stop style="stop-color:#3465a4;stop-opacity:1" id="stop9391" offset="1"/></linearGradient><linearGradient id="linearGradient2431"><stop style="stop-color:#fff;stop-opacity:1" id="stop2433" offset="0"/><stop style="stop-color:#b8b8b8;stop-opacity:1" id="stop2435" offset="1"/></linearGradient><linearGradient id="linearGradient2933"><stop id="stop2935" offset="0" style="stop-color:#9cbcde;stop-opacity:1"/><stop id="stop2937" offset="1" style="stop-color:#204a87"/></linearGradient><linearGradient id="linearGradient3117" x1="34.798" x2="17.445" y1="29.173" y2="-6.889" gradientTransform="matrix(0.903401,0,0,0.903401,2.335437,2.177737)" gradientUnits="userSpaceOnUse" xlink:href="#linearGradient3111"/><radialGradient id="radialGradient3107" cx="17.313" cy="25.531" r="9.688" fx="17.313" fy="25.531" gradientTransform="matrix(1,0,0,0.351613,0,16.55413)" gradientUnits="userSpaceOnUse" xlink:href="#linearGradient3101"/><linearGradient id="linearGradient121" x1="18.711" x2="11.413" y1="34.807" y2="31.452" gradientTransform="matrix(2.151235,0.000000,0.000000,1.154539,-0.778091,-3.220331)" gradientUnits="userSpaceOnUse" xlink:href="#linearGradient6621"/><linearGradient id="linearGradient1697" x1="11.355" x2="6.358" y1="32.757" y2="6.1" gradientTransform="matrix(2.012297,0,0,1.079974,0.835129,-1.340661)" gradientUnits="userSpaceOnUse" xlink:href="#linearGradient6621"/><linearGradient id="linearGradient7881" x1="22.82" x2="12.85" y1="28.829" y2="12.239" gradientTransform="matrix(0.946979,0,0,0.487322,3.734953,4.049714)" gradientUnits="userSpaceOnUse" xlink:href="#linearGradient6621"/><linearGradient id="linearGradient6621"><stop id="stop6622" offset="0" style="stop-color:#f5a108;stop-opacity:0"/><stop id="stop6623" offset="1" style="stop-color:#fefdc3;stop-opacity:.74251497"/></linearGradient><linearGradient id="linearGradient117" x1="13.567" x2="7.534" y1="21.47" y2="8.809" gradientTransform="scale(1.365022,0.732589)" gradientUnits="userSpaceOnUse" xlink:href="#linearGradient6621"/><linearGradient id="linearGradient118"><stop id="stop119" offset="0" style="stop-color:#f5a108;stop-opacity:0"/><stop id="stop120" offset="1" style="stop-color:#fefdc3;stop-opacity:.74251497"/></linearGradient><linearGradient id="linearGradient3101"><stop id="stop3103" offset="0" style="stop-color:#000;stop-opacity:1"/><stop id="stop3105" offset="1" style="stop-color:#000;stop-opacity:0"/></linearGradient><linearGradient id="linearGradient3111"><stop id="stop3113" offset="0" style="stop-color:#fff;stop-opacity:1"/><stop id="stop3115" offset="1" style="stop-color:#fff;stop-opacity:0"/></linearGradient><linearGradient id="linearGradient26164" x1="34.798" x2="17.445" y1="29.173" y2="-6.889" gradientTransform="matrix(0.903401,0,0,0.903401,-19.809728,52.190387)" gradientUnits="userSpaceOnUse" xlink:href="#linearGradient3111"/><linearGradient id="linearGradient26167" x1="11.355" x2="6.358" y1="32.757" y2="6.1" gradientTransform="matrix(2.012297,0,0,1.079974,-21.310036,48.671989)" gradientUnits="userSpaceOnUse" xlink:href="#linearGradient6621"/><linearGradient id="linearGradient26171" x1="22.82" x2="12.85" y1="28.829" y2="12.239" gradientTransform="matrix(0.946979,0,0,0.487322,-18.410212,54.062364)" gradientUnits="userSpaceOnUse" xlink:href="#linearGradient6621"/><radialGradient id="radialGradient26175" cx="17.313" cy="25.531" r="9.688" fx="17.313" fy="25.531" gradientTransform="matrix(1,0,0,0.351613,0,16.55413)" gradientUnits="userSpaceOnUse" xlink:href="#linearGradient3101"/><radialGradient id="radialGradient26179" cx="17.313" cy="25.531" r="9.688" fx="17.313" fy="25.531" gradientTransform="matrix(1,0,0,0.351613,0,16.55413)" gradientUnits="userSpaceOnUse" xlink:href="#linearGradient3101"/><linearGradient id="linearGradient11339" x1="24.953" x2="24.953" y1="40.172" y2="36.165" gradientUnits="userSpaceOnUse" xlink:href="#linearGradient9387"/><linearGradient id="linearGradient11343" x1="24.953" x2="24.953" y1="41.99" y2="33.354" gradientTransform="matrix(1,0,0,0.5126094,0,15.149961)" gradientUnits="userSpaceOnUse" xlink:href="#linearGradient5162"/><linearGradient id="linearGradient17232" x1="26.028" x2="26.028" y1="26.789" y2="15.86" gradientUnits="userSpaceOnUse" xlink:href="#linearGradient9387"/><linearGradient id="linearGradient17234" x1="24.862" x2="24.862" y1="38.397" y2="18.786" gradientTransform="matrix(1,0,0,0.5126094,8.0802436,-4.3908524)" gradientUnits="userSpaceOnUse" xlink:href="#linearGradient5162"/></defs><metadata id="metadata4"/><g id="layer1"><path style="opacity:.40909089;color:#000;fill:url(#radialGradient26179);fill-opacity:1;fill-rule:nonzero;stroke:none;stroke-width:1.10533953;stroke-linecap:butt;stroke-linejoin:miter;marker:none;marker-start:none;marker-mid:none;marker-end:none;stroke-miterlimit:4;stroke-dasharray:none;stroke-dashoffset:0;stroke-opacity:1;visibility:visible;display:inline;overflow:visible" id="path26177" d="M 27 25.53125 A 9.6875 3.40625 0 1 1 7.625,25.53125 A 9.6875 3.40625 0 1 1 27 25.53125 z" transform="matrix(0.9586923,0,0,1.5642847,8.2432652,2.7335115)"/><path id="path6476" d="M 20.234717,31.083815 L 20.187293,40.125024 L 29.672067,40.171628 L 29.719491,31.130419 L 20.234717,31.083815 z" style="font-size:34.15322876px;font-style:normal;font-variant:normal;font-weight:700;font-stretch:normal;text-align:start;line-height:125%;writing-mode:lr-tb;text-anchor:start;fill:url(#linearGradient11339);fill-opacity:1;stroke:none;stroke-width:1.65403736px;stroke-linecap:round;stroke-linejoin:round;stroke-opacity:1;font-family:Bitstream Vera Sans"/><path id="path7447" d="M 25.641038,2.5154597 C 21.954737,2.5621647 18.256265,3.3850789 14.828396,4.6126473 C 14.861661,7.2464444 14.76294,9.9339665 14.87582,12.535356 C 16.37995,12.090685 17.863809,10.829408 19.493015,10.37192 C 22.187204,9.4245106 25.679873,8.4723915 28.095133,10.489054 C 29.950071,12.356101 28.649507,15.236359 26.929567,16.711969 C 24.235354,19.219314 20.604007,21.476906 20.191486,25.426937 L 20.195644,27.821523 L 29.719491,27.774919 C 29.76773,26.430834 29.795021,24.886016 30.885118,23.8479 C 33.642669,20.880764 37.696712,18.587713 38.478449,14.313862 C 39.32648,10.443555 37.776396,5.9254243 33.951445,4.1790301 C 31.407026,2.8688695 28.476084,2.525901 25.641038,2.5154597 z" style="font-size:34.15322876px;font-style:normal;font-variant:normal;font-weight:700;font-stretch:normal;text-align:start;line-height:125%;writing-mode:lr-tb;text-anchor:start;fill:url(#linearGradient17232);fill-opacity:1;stroke:none;stroke-width:1.65403736px;stroke-linecap:round;stroke-linejoin:round;stroke-opacity:1;font-family:Bitstream Vera Sans;opacity:1;color:#000;fill-rule:nonzero;marker:none;marker-start:none;marker-mid:none;marker-end:none;stroke-miterlimit:4;stroke-dasharray:none;stroke-dashoffset:0;visibility:visible;display:inline;overflow:visible;enable-background:accumulate"/><path style="font-size:34.15322876px;font-style:normal;font-variant:normal;font-weight:700;font-stretch:normal;text-align:start;line-height:125%;writing-mode:lr-tb;text-anchor:start;fill:url(#linearGradient17234);fill-opacity:1;stroke:none;stroke-width:1.65403736px;stroke-linecap:round;stroke-linejoin:round;stroke-opacity:1;font-family:Bitstream Vera Sans" id="path17190" d="M 25.65625 2.5 C 21.969948 2.5467049 18.271619 3.3974316 14.84375 4.625 C 14.877015 7.2587969 14.76212 9.9298605 14.875 12.53125 C 16.37913 12.086579 17.870794 10.832488 19.5 10.375 C 22.194189 9.427591 25.67849 8.4833375 28.09375 10.5 C 29.716821 12.133666 28.938301 14.528381 27.5625 16.09375 L 28.28125 16.15625 C 32.432501 13.356756 33.827133 18.335108 37.75 16.1875 L 37.875 16.1875 C 38.139498 15.606302 38.346604 14.980289 38.46875 14.3125 C 39.316779 10.442193 37.762451 5.9338942 33.9375 4.1875 C 31.393079 2.8773396 28.491296 2.5104413 25.65625 2.5 z"/><path style="font-size:34.15322876px;font-style:normal;font-variant:normal;font-weight:700;font-stretch:normal;text-align:start;line-height:125%;writing-mode:lr-tb;text-anchor:start;fill:none;fill-opacity:1;stroke:#204a87;stroke-width:1;stroke-linecap:round;stroke-linejoin:round;stroke-opacity:1;font-family:Bitstream Vera Sans;stroke-miterlimit:4;stroke-dasharray:none" id="path2241" d="M 25.641038,2.5154597 C 21.954737,2.5621647 18.256265,3.3850789 14.828396,4.6126473 C 14.861661,7.2464444 14.76294,9.9339665 14.87582,12.535356 C 16.37995,12.090685 17.863809,10.829408 19.493015,10.37192 C 22.187204,9.4245106 25.679873,8.4723915 28.095133,10.489054 C 29.950071,12.356101 28.649507,15.236359 26.929567,16.711969 C 24.235354,19.219314 20.604007,21.476906 20.191486,25.426937 L 20.195644,27.821523 L 29.719491,27.774919 C 29.76773,26.430834 29.795021,24.886016 30.885118,23.8479 C 33.642669,20.880764 37.696712,18.587713 38.478449,14.313862 C 39.32648,10.443555 37.776396,5.9254243 33.951445,4.1790301 C 31.407026,2.8688695 28.476084,2.525901 25.641038,2.5154597 z"/><path style="font-size:34.15322876px;font-style:normal;font-variant:normal;font-weight:700;font-stretch:normal;text-align:start;line-height:125%;writing-mode:lr-tb;text-anchor:start;fill:url(#linearGradient11343);fill-opacity:1;stroke:none;stroke-width:1.65403736px;stroke-linecap:round;stroke-linejoin:round;stroke-opacity:1;font-family:Bitstream Vera Sans" id="path11341" d="M 20.234717,31.083815 L 20.187293,35.718423 C 24.338543,32.91893 25.7492,37.889921 29.672067,35.742313 L 29.719491,31.107705 L 20.234717,31.083815 z"/><path style="font-size:34.15322876px;font-style:normal;font-variant:normal;font-weight:700;font-stretch:normal;text-align:start;line-height:125%;writing-mode:lr-tb;text-anchor:start;fill:none;fill-opacity:1;stroke:#204a87;stroke-width:1;stroke-linecap:round;stroke-linejoin:round;stroke-opacity:1;font-family:Bitstream Vera Sans;stroke-miterlimit:4;stroke-dasharray:none" id="path1554" d="M 20.234717,31.083815 L 20.187293,40.125024 L 29.672067,40.171628 L 29.719491,31.130419 L 20.234717,31.083815 z"/></g></svg>